<svg width="16" height="20" viewBox="0 0 16 20" fill="none" xmlns="http://www.w3.org/2000/svg">
<path d="M6.5 12.5C6.5 13.0523 6.94772 13.5 7.5 13.5H8.5C9.05229 13.5 9.5 13.0523 9.5 12.5V12C9.5 11.4477 9.94771 11 10.5 11H11C11.5523 11 12 10.5523 12 10V9C12 8.44771 11.5523 8 11 8H10.5C9.94771 8 9.5 7.55228 9.5 7V6.5C9.5 5.94772 9.05228 5.5 8.5 5.5H7.5C6.94772 5.5 6.5 5.94772 6.5 6.5V7C6.5 7.55228 6.05228 8 5.5 8H5C4.44772 8 4 8.44772 4 9V10C4 10.5523 4.44772 11 5 11H5.5C6.05228 11 6.5 11.4477 6.5 12V12.5ZM8 20C5.68333 19.4167 3.77083 18.0875 2.2625 16.0125C0.754167 13.9375 0 11.6333 0 9.1V3.693C0 3.27616 0.258573 2.90304 0.648877 2.75667L7.64888 0.131671C7.87526 0.0467768 8.12474 0.0467769 8.35112 0.131671L15.3511 2.75667C15.7414 2.90304 16 3.27616 16 3.693V9.1C16 11.6333 15.2458 13.9375 13.7375 16.0125C12.2292 18.0875 10.3167 19.4167 8 20ZM8 17.9C9.73333 17.35 11.1667 16.25 12.3 14.6C13.4333 12.95 14 11.1167 14 9.1V5.068C14 4.65115 13.7414 4.27804 13.3511 4.13167L8.35112 2.25667C8.12474 2.17178 7.87526 2.17178 7.64888 2.25667L2.64888 4.13167C2.25857 4.27804 2 4.65116 2 5.068V9.1C2 11.1167 2.56667 12.95 3.7 14.6C4.83333 16.25 6.26667 17.35 8 17.9Z" fill="#0E5AA6"/>
</svg>
