<svg width="96" height="12" viewBox="0 0 96 12" fill="none" xmlns="http://www.w3.org/2000/svg">
<path d="M46.7018 1.00342V10.9239H44.8453L39.8142 4.29843L39.8071 10.9239H37.8301V1.00342H39.6795L44.7177 7.62887V1.00342H46.7018Z" fill="#0E5AA6"/>
<path d="M30.8313 0.819092C33.8854 0.819092 36.0466 3.00159 36.0466 5.96356C36.0466 8.92553 33.8854 11.108 30.8313 11.108C27.7772 11.108 25.623 8.92553 25.623 5.96356C25.623 3.00159 27.7772 0.819092 30.8313 0.819092ZM30.8313 2.71815C29.0102 2.71815 27.6851 4.03616 27.6851 5.96356C27.6851 7.89096 29.0102 9.20897 30.8313 9.20897C32.6595 9.20897 33.9775 7.89096 33.9775 5.96356C33.9775 4.03616 32.6595 2.71815 30.8313 2.71815Z" fill="#0E5AA6"/>
<path d="M23.8286 1.00342V10.9239H21.8516V1.00342H23.8286Z" fill="#0E5AA6"/>
<path d="M12.209 1.00342H16.4039C18.7707 1.00342 20.0391 2.12301 20.0391 4.02207C20.0391 5.65186 18.9053 6.76437 16.9992 6.94861L20.0532 10.9239H17.6582L14.767 6.97695H14.186V10.9239H12.209V1.00342ZM16.3685 2.82453H14.186V5.25504H16.3685C17.4456 5.25504 18.0054 4.85823 18.0054 4.02207C18.0054 3.20009 17.4172 2.82453 16.3685 2.82453Z" fill="#0E5AA6"/>
<path d="M5.20824 0.819092C8.26233 0.819092 10.4236 3.00159 10.4236 5.96356C10.4236 8.92553 8.26233 11.108 5.20824 11.108C2.15416 11.108 0 8.92553 0 5.96356C0 3.00159 2.15416 0.819092 5.20824 0.819092ZM5.20824 2.71815C3.38713 2.71815 2.06204 4.03616 2.06204 5.96356C2.06204 7.89096 3.38713 9.20897 5.20824 9.20897C7.03644 9.20897 8.35444 7.89096 8.35444 5.96356C8.35444 4.03616 7.03644 2.71815 5.20824 2.71815Z" fill="#0E5AA6"/>
<path d="M96.0009 1.07593L93.0389 10.9964H90.6438L88.518 3.91035L86.3922 10.9964H83.9971L81.0352 1.07593H83.0901L85.223 8.68634L87.4409 1.07593H89.6305L91.8485 8.68634L93.9814 1.07593H96.0009Z" fill="#0C0C0C"/>
<path d="M75.1828 0.891846C78.2369 0.891846 80.3982 3.07435 80.3982 6.03631C80.3982 8.99828 78.2369 11.1808 75.1828 11.1808C72.1288 11.1808 69.9746 8.99828 69.9746 6.03631C69.9746 3.07435 72.1288 0.891846 75.1828 0.891846ZM75.1828 2.79091C73.3617 2.79091 72.0366 4.10891 72.0366 6.03631C72.0366 7.96372 73.3617 9.28172 75.1828 9.28172C77.011 9.28172 78.3291 7.96372 78.3291 6.03631C78.3291 4.10891 77.011 2.79091 75.1828 2.79091Z" fill="#0C0C0C"/>
<path d="M69.4804 9.14693V10.9964H62.2598V1.07593H64.2368V9.14693H69.4804Z" fill="#0C0C0C"/>
<path d="M60.1213 5.15749V6.9786H55.1469V10.9964H53.1699V1.07593H60.4544V2.89704H55.1469V5.15749H60.1213Z" fill="#0C0C0C"/>
</svg>
