<svg width="24" height="24" viewBox="0 0 24 24" fill="none" xmlns="http://www.w3.org/2000/svg">
<circle cx="12" cy="12" r="12" fill="#0DA690"/>
<path d="M11.0673 13.1999L9.63398 11.7666C9.51176 11.6444 9.35621 11.5833 9.16732 11.5833C8.97843 11.5833 8.82287 11.6444 8.70065 11.7666C8.57843 11.8888 8.51732 12.0444 8.51732 12.2333C8.51732 12.4221 8.57843 12.5777 8.70065 12.6999L10.6007 14.5999C10.734 14.7333 10.8895 14.7999 11.0673 14.7999C11.2451 14.7999 11.4007 14.7333 11.534 14.5999L15.3007 10.8333C15.4229 10.711 15.484 10.5555 15.484 10.3666C15.484 10.1777 15.4229 10.0221 15.3007 9.89992C15.1784 9.7777 15.0229 9.71659 14.834 9.71659C14.6451 9.71659 14.4895 9.7777 14.3673 9.89992L11.0673 13.1999ZM12.0007 18.6666C11.0784 18.6666 10.2118 18.4916 9.40065 18.1416C8.58954 17.7916 7.88398 17.3166 7.28398 16.7166C6.68398 16.1166 6.20898 15.411 5.85898 14.5999C5.50898 13.7888 5.33398 12.9221 5.33398 11.9999C5.33398 11.0777 5.50898 10.211 5.85898 9.39992C6.20898 8.58881 6.68398 7.88325 7.28398 7.28325C7.88398 6.68325 8.58954 6.20825 9.40065 5.85825C10.2118 5.50825 11.0784 5.33325 12.0007 5.33325C12.9229 5.33325 13.7895 5.50825 14.6007 5.85825C15.4118 6.20825 16.1173 6.68325 16.7173 7.28325C17.3173 7.88325 17.7923 8.58881 18.1423 9.39992C18.4923 10.211 18.6673 11.0777 18.6673 11.9999C18.6673 12.9221 18.4923 13.7888 18.1423 14.5999C17.7923 15.411 17.3173 16.1166 16.7173 16.7166C16.1173 17.3166 15.4118 17.7916 14.6007 18.1416C13.7895 18.4916 12.9229 18.6666 12.0007 18.6666ZM12.0007 17.3333C13.4895 17.3333 14.7507 16.8166 15.784 15.7833C16.8173 14.7499 17.334 13.4888 17.334 11.9999C17.334 10.511 16.8173 9.24992 15.784 8.21659C14.7507 7.18325 13.4895 6.66659 12.0007 6.66659C10.5118 6.66659 9.25065 7.18325 8.21732 8.21659C7.18398 9.24992 6.66732 10.511 6.66732 11.9999C6.66732 13.4888 7.18398 14.7499 8.21732 15.7833C9.25065 16.8166 10.5118 17.3333 12.0007 17.3333Z" fill="white"/>
</svg>
